<?xml version="1.0" encoding="utf-8"?>
<!-- Generator: Adobe Illustrator 26.4.1, SVG Export Plug-In . SVG Version: 6.00 Build 0)  -->
<svg version="1.1" id="Layer_1" xmlns="http://www.w3.org/2000/svg" xmlns:xlink="http://www.w3.org/1999/xlink" x="0px" y="0px"
	 viewBox="0 0 20 20" style="enable-background:new 0 0 20 20;" xml:space="preserve">
<style type="text/css">
	.st0{fill:#AF3713;}
</style>
<path class="st0" d="M10,0.4c-5.3,0-9.6,4.3-9.6,9.6s4.3,9.6,9.6,9.6s9.6-4.3,9.6-9.6S15.3,0.4,10,0.4z M10.7,12.3
	c-0.6,0-0.9-0.4-1.4-0.6C9,13,8.7,14.4,7.8,15.1C7.5,13,8.2,11.4,8.6,9.7C8,8.7,8.7,6.8,9.9,7.2c1.5,0.6-1.3,3.6,0.6,4
	c2,0.4,2.8-3.4,1.6-4.6c-1.8-1.8-5.1,0-4.7,2.5C7.3,9.7,8,9.9,7.5,10.8C6.4,10.5,6,9.7,6.1,8.5c0-2,1.7-3.3,3.4-3.5
	c2.1-0.2,4.1,0.8,4.4,2.8C14.2,10,12.9,12.5,10.7,12.3z"/>
</svg>
